Poster: 
http://www.shotpix.com/images/89276490843146522589.jpg

Info:

Format : AVI
Format/Info : Audio Video Interleave
File size : 689 MiB
Duration : 2h 15mn
Overall bit rate mode : Variable
Overall bit rate : 711 Kbps
Writing application : VirtualDubMod 1.5.4.1 (build 2178/release)
Writing library : VirtualDub build 32842/release

Video
ID : 0
Format : MPEG-4 Visual
Format profile : Advanced Simple@L5
Format settings, BVOP : 1
Format settings, QPel : No
Format settings, GMC : No warppoints
Format settings, Matrix : Custom
Codec ID : XVID
Codec ID/Hint : XviD
Duration : 2h 15mn
Bit rate : 582 Kbps
Width : 336 pixels
Height : 144 pixels
Display aspect ratio : 2.35:1
Frame rate : 23.976 fps
Color space : YUV
Chroma subsampling : 4:2:0
Bit depth : 8 bits
Scan type : Progressive
Compression mode : Lossy
Bits/(Pixel*Frame) : 0.502
Stream size : 564 MiB (82%)
Writing library : XviD 1.2.1 (UTC 2008-12-04)

Audio
ID : 1
Format : MPEG Audio
Format version : Version 1
Format profile : Layer 3
Mode : Joint stereo
Mode extension : MS Stereo
Codec ID : 55
Codec ID/Hint : MP3
Duration : 2h 15mn
Bit rate mode : Variable
Bit rate : 116 Kbps
Nominal bit rate : 128 Kbps
Channel(s) : 2 channels
Sampling rate : 48.0 KHz
Compression mode : Lossy
Stream size : 112 MiB (16%)
Alignment : Aligned on interleaves
Interleave, duration : 24 ms (0.58 video frame)
Interleave, preload duration : 484 ms
Writing library : LAME3.98r
Encoding settings : -m j -V 4 -q 2 -lowpass 17 --abr 128


Screens: 
http://www.shotpix.com/images/37279857147002858929.png 
http://www.shotpix.com/images/62018762395332760048.png 
http://www.shotpix.com/images/42897847640466519326.png 
http://www.shotpix.com/images/92784016693826915957.png 
http://www.shotpix.com/images/14369864426156376234.png 
http://www.shotpix.com/images/03283870107325168722.png





